<svg id="Calque_1" data-name="Calque 1" xmlns="http://www.w3.org/2000/svg" viewBox="0 0 99.96 100"><defs><style>.cls-1{fill:#ffffff;} .cls-2{fill:#ffffff}</style></defs><path class="cls-1" d="M62.4,79.06c0-4.92.07-9.85,0-14.77,0-1.57.49-1.91,2-1.9,9.52.06,19.05,0,28.58,0,4.69,0,7-2.31,7-7,0-3.55,0-7.09,0-10.64,0-4.9-2.3-7.16-7.21-7.17-9.53,0-19.06,0-28.58,0-1.4,0-1.8-.37-1.79-1.78.06-9.63,0-19.27,0-28.9,0-4.5-2.34-6.85-6.84-6.9-3.6,0-7.2,0-10.8,0-4.92,0-7.19,2.27-7.2,7.17q0,14.13,0,28.27c0,2.11,0,2.11-2,2.11H7.11c-4.79,0-7.07,2.3-7.1,7.12,0,3.49,0,7,0,10.48,0,5,2.27,7.24,7.29,7.25,9.48,0,19,0,28.43,0,1.45,0,1.87.39,1.86,1.85-.06,9.64,0,19.27,0,28.91,0,4.4,2.34,6.76,6.75,6.81,3.81.05,7.62.06,11.43,0,4.3-.06,6.62-2.45,6.65-6.76C62.42,88.49,62.4,83.77,62.4,79.06Z" transform="translate(0 0)"/><path class="cls-2" d="M62.4,79.06c0,4.71,0,9.43,0,14.14,0,4.31-2.35,6.7-6.65,6.76-3.81.06-7.62.05-11.43,0-4.41,0-6.75-2.41-6.75-6.81,0-9.64,0-19.27,0-28.91,0-1.46-.41-1.86-1.86-1.85-9.48.06-18.95,0-28.43,0-5,0-7.27-2.24-7.29-7.25,0-3.49,0-7,0-10.48,0-4.82,2.31-7.11,7.1-7.12H35.54c2,0,2,0,2-2.11q0-14.13,0-28.27c0-4.9,2.28-7.15,7.2-7.17,3.6,0,7.2,0,10.8,0,4.5.05,6.83,2.4,6.84,6.9,0,9.63,0,19.27,0,28.9,0,1.41.39,1.79,1.79,1.78,9.52-.06,19,0,28.58,0,4.91,0,7.19,2.27,7.21,7.17,0,3.55,0,7.09,0,10.64,0,4.72-2.33,7-7,7-9.53,0-19.06,0-28.58,0-1.49,0-2,.33-2,1.9C62.47,69.21,62.4,74.14,62.4,79.06Z" transform="translate(0 0)"/></svg>