<svg id="Calque_1" data-name="Calque 1" xmlns="http://www.w3.org/2000/svg" viewBox="0 0 100 75.06"><path d="M0,63.63c.16-.83.28-1.66.49-2.48C2.82,52,8.61,46.29,17.87,44.2L18.7,44c.17-10.86,4.52-19.63,13.43-25.93A30,30,0,0,1,53.49,12.7,30.29,30.29,0,0,1,75.18,25.33a30.73,30.73,0,0,1,5.48,24.39c2,.33,3.91.49,5.77,1A18.73,18.73,0,0,1,81,87.44c-7.16,0-14.32,0-21.48,0a18.09,18.09,0,0,1-9.83-2.38,11.9,11.9,0,0,1-5.94-10.55c0-6.28,0-12.57,0-18.85V54.43c-.37.34-.61.54-.82.76-2.08,2.06-4.14,4.14-6.22,6.2-1.48,1.47-3.38,1.56-4.68.25s-1.21-3.16.29-4.67q6-6,12.09-12.08a3.26,3.26,0,0,1,5.06,0q6.06,6,12.08,12.08a3.13,3.13,0,1,1-4.38,4.43c-2.33-2.32-4.64-4.65-7.17-7.19v20a6.07,6.07,0,0,0,4.37,6.21,13.72,13.72,0,0,0,4.19.77c7.71.08,15.43.13,23.14,0a12.48,12.48,0,0,0-.45-25c-1.39,0-2.79.16-4.19.23a3.11,3.11,0,0,1-3.37-3.89c.3-1.63.69-3.25.93-4.88,1.29-8.91-1.35-16.5-8-22.53a23.68,23.68,0,0,0-20.41-6.09c-8.76,1.38-15.07,6.2-18.95,14.16A23.32,23.32,0,0,0,25,43.7c0,1,0,2,0,3a3.08,3.08,0,0,1-2.52,3c-1.12.22-2.25.35-3.37.55A15.62,15.62,0,0,0,6.27,64.7,16,16,0,0,0,17.55,80.86a9.61,9.61,0,0,0,2.5.35c4.72,0,9.44,0,14.16,0a3.1,3.1,0,0,1,3.07,4.18,2.77,2.77,0,0,1-2.54,2c-5.37.07-10.75.28-16.1-.05A18.36,18.36,0,0,1,7.78,82.47,21.79,21.79,0,0,1,.19,68.27c0-.25-.13-.49-.19-.74Z" transform="translate(0 -12.47)"/></svg>