<svg id="Calque_1" data-name="Calque 1" xmlns="http://www.w3.org/2000/svg" viewBox="0 0 100 100"><defs><style>.cls-1{fill:#fff;}</style></defs><path class="cls-1" d="M34.7,61.67V53.79H15.29v7.88Zm-19.39-31v7.7h19.4V30.7ZM34.75,42.25H15.31v7.67H34.75Z"/><path d="M100,86.91c-.25.9-.47,1.82-.77,2.7-1.89,5.48-5.8,8.73-11.32,10.16a9.5,9.5,0,0,1-2.39.22Q69.26,100,53,100a13.91,13.91,0,0,1-8.42-3A15.5,15.5,0,0,1,38.51,86.9a16.59,16.59,0,0,1-.22-3q0-24.26,0-48.53c0-4.51,1.32-8.6,4.65-11.8a13.79,13.79,0,0,1,8.8-4.22c3.46-.19,6.93-.17,10.4-.21,2.05,0,4.11.06,6.16,0a10.14,10.14,0,0,1,7.56,3q9.91,9.51,19.62,19.23a17.51,17.51,0,0,1,4.51,7.1ZM46.29,59.59V84.68a7.63,7.63,0,0,0,7.52,7.5c10.19,0,20.37,0,30.56,0a7.66,7.66,0,0,0,7.82-7.81c0-3.71,0-7.42,0-11.13v-23c0-1.58-.52-2.86-2.16-3.32a14.12,14.12,0,0,0-3.27-.58c-3.19-.07-6.38,0-9.57,0A3.86,3.86,0,0,1,73,42.16c0-3,.07-6,0-9a19.22,19.22,0,0,0-.59-4.06A2.74,2.74,0,0,0,69.7,27c-5.59.05-11.18,0-16.76.23a7.15,7.15,0,0,0-6.62,7C46.23,42.66,46.29,51.13,46.29,59.59Z"/><path d="M32.42,0c3.86,1.36,6.7,4.15,9.53,6.91s5.58,5.55,8.5,8.47a17.43,17.43,0,0,0-9,2.82,16.56,16.56,0,0,0-5.83,7.51,3.39,3.39,0,0,1-1-2.45c0-3,.06-5.93,0-8.88A24,24,0,0,0,34,9.92a2.67,2.67,0,0,0-2.89-2.11H15.54A7.56,7.56,0,0,0,8,13.8a9.21,9.21,0,0,0-.2,1.81q0,25,0,50a7.24,7.24,0,0,0,6.64,7.2C20,73,25.59,73,31.14,73c1.17,0,2.33,0,3.56,0v7.82H33.64c-6.05,0-12.11,0-18.16,0A15,15,0,0,1,5.22,77,14.64,14.64,0,0,1,0,65.55q0-25.48,0-51A13.89,13.89,0,0,1,3,6.14a15.29,15.29,0,0,1,9-5.86L13.09,0Z"/><path d="M34.7,61.67H15.29V53.79H34.7Z"/><path d="M15.31,30.7h19.4v7.7H15.31Z"/><path d="M34.75,42.25v7.67H15.31V42.25Z"/><path d="M46.29,59.59c0-8.46-.06-16.93,0-25.39a7.15,7.15,0,0,1,6.62-7C58.52,27,64.11,27,69.7,27a2.74,2.74,0,0,1,2.73,2.16A19.22,19.22,0,0,1,73,33.18c.09,3,.07,6,0,9a3.86,3.86,0,0,0,4.15,4.12c3.19,0,6.38,0,9.57,0a14.12,14.12,0,0,1,3.27.58c1.64.46,2.16,1.74,2.16,3.32v23c0,3.71,0,7.42,0,11.13a7.66,7.66,0,0,1-7.82,7.81c-10.19,0-20.37,0-30.56,0a7.63,7.63,0,0,1-7.52-7.5ZM84.7,57.77V50.08H53.77v7.69Zm0,23v-7.7H53.79v7.7ZM53.76,69.27H76.88v-7.7H53.76Z"/></svg>