<svg id="Calque_1" data-name="Calque 1" xmlns="http://www.w3.org/2000/svg" viewBox="0 0 100 68.45"><path d="M50,84.23H7c-4.52,0-7-2.49-7-6.94V22.72c0-4.43,2.49-6.94,6.9-6.94H93.08c4.43,0,6.92,2.5,6.92,6.93V77.28c0,4.46-2.53,7-7,7ZM88,22.09H12.26L50,59.33ZM35.83,55.33,6.31,25.94V78a10.07,10.07,0,0,1,1.46,0c3.52.61,6-.81,8.46-3.35C22.69,68,29.46,61.57,35.83,55.33Zm28.57-.21c0-.07,0,0,0,.08q11.4,11.17,22.8,22.35A1.35,1.35,0,0,0,88,78c1.89,0,3.79,0,5.69,0V26Zm-5,4.57L55.09,64c-3.12,3.12-6.68,3.12-9.8,0-1.46-1.46-2.89-3-4.38-4.49l-19,18.41H78.29Z" transform="translate(0 -15.77)"/></svg>