<svg id="Calque_1" data-name="Calque 1" xmlns="http://www.w3.org/2000/svg" viewBox="0 0 96.83 100"><defs><style>.cls-1{fill:#fff;}</style></defs><path class="cls-1" d="M15.06,63.77c-.37,0-.61,0-.85,0-3.91,0-7.82,0-11.73,0-.76,0-.89.25-.89.94,0,9.37,0,18.74,0,28.11A8.47,8.47,0,0,0,1.87,95c.87,3.23,3.41,5,7,5H91.17c4.39,0,7.22-2.83,7.23-7.24q0-14.06,0-28.11c0-.7-.15-1-.9-.94-3.91,0-7.82,0-11.72,0-.24,0-.48,0-.82,0V86.51H15.06Zm44.62-29V2.17C59.68.42,59.26,0,57.5,0H43.07a8,8,0,0,0-1,0c-1.08.15-1.46.6-1.46,1.68V35.47h-.9c-3.14,0-6.29,0-9.43,0-.65,0-1.5-.21-1.86.52s.33,1.32.76,1.85Q36.58,46.8,44,55.71c1.52,1.83,3,3.67,4.56,5.48,1.27,1.5,2.47,1.52,3.76.07.58-.65,1.16-1.31,1.69-2L67,42.4c1.32-1.71,2.67-3.4,3.93-5.15a2.37,2.37,0,0,0,.52-1.73c-.12-.38-1-.53-1.56-.72a3,3,0,0,0-.9,0H59.68Z" transform="translate(-1.59 0)"/><path d="M15.06,63.77V86.51H85V63.77c.34,0,.58,0,.82,0,3.9,0,7.81,0,11.72,0,.75,0,.9.24.9.94q0,14.05,0,28.11c0,4.41-2.84,7.24-7.23,7.24H8.84c-3.56,0-6.1-1.82-7-5a8.47,8.47,0,0,1-.26-2.19c0-9.37,0-18.74,0-28.11,0-.69.13-1,.89-.94,3.91,0,7.82,0,11.73,0C14.45,63.73,14.69,63.75,15.06,63.77Z" transform="translate(-1.59 0)"/><path d="M59.68,34.77H69a3,3,0,0,1,.9,0c.56.19,1.44.34,1.56.72A2.37,2.37,0,0,1,71,37.25C69.71,39,68.36,40.69,67,42.4L54,59.26c-.53.69-1.11,1.35-1.69,2-1.29,1.45-2.49,1.43-3.76-.07-1.54-1.81-3-3.65-4.56-5.48q-7.41-8.93-14.8-17.85c-.43-.53-1.14-1.08-.76-1.85s1.21-.52,1.86-.52c3.14,0,6.29,0,9.43,0h.9V1.72C40.63.64,41,.19,42.09,0a8,8,0,0,1,1,0H57.5c1.76,0,2.18.42,2.18,2.17v32.6Z" transform="translate(-1.59 0)"/></svg>