<svg id="Calque_1" data-name="Calque 1" xmlns="http://www.w3.org/2000/svg" viewBox="0 0 91.12 100"><defs><style>.cls-1{fill:none;}</style></defs><polygon class="cls-1" points="34.1 9.02 31.7 15.09 59.53 15.09 56.83 9.27 34.1 9.02"/><path d="M93,16.66H73.55L67.85,1.54A2.38,2.38,0,0,0,65.62,0H34.17a2.39,2.39,0,0,0-2.23,1.55L26.32,16.66H6.63a2.38,2.38,0,0,0-2.38,2.39V23.1a2.38,2.38,0,0,0,2.38,2.38h5.92V87.6c0,6.85,5,12.4,11.08,12.4H76c6.12,0,11.09-5.55,11.09-12.4V25.48H93a2.38,2.38,0,0,0,2.38-2.38V19.05A2.38,2.38,0,0,0,93,16.66ZM78.3,87.6A2.48,2.48,0,0,1,76,90.2H23.63a2.48,2.48,0,0,1-2.32-2.6V26.47h57ZM37.85,10.06a2.39,2.39,0,0,1,2.24-1.55H59.74A2.38,2.38,0,0,1,62,10.05l2.49,6.61H35.39Z" transform="translate(-4.25)"/><rect x="24.53" y="37.53" width="8.48" height="41.52" rx="2.38"/><rect x="41.26" y="37.53" width="8.48" height="41.52" rx="2.38"/><rect x="57.98" y="37.53" width="8.48" height="41.52" rx="2.38"/></svg>