<svg id="Calque_1" data-name="Calque 1" xmlns="http://www.w3.org/2000/svg" viewBox="0 0 100 100"><path d="M52.93,100H47c-.1,0-.19,0-.29-.06A42.23,42.23,0,0,1,42,99.42,49,49,0,0,1,24.8,93.26,49.79,49.79,0,0,1,4.41,70.72,48.44,48.44,0,0,1,.46,57.23C.26,55.82.15,54.4,0,53V47c.05-.49.11-1,.16-1.47A46.86,46.86,0,0,1,2.8,33.34a49.69,49.69,0,0,1,24.75-28A48.11,48.11,0,0,1,45.43.21,50.37,50.37,0,0,1,56.81.46,49.36,49.36,0,0,1,73.4,5.81,50,50,0,0,1,99.69,55.59,48.54,48.54,0,0,1,94.9,72a49.71,49.71,0,0,1-24.14,23.5,48,48,0,0,1-14.34,4.1C55.26,99.78,54.09,99.88,52.93,100ZM49.84,14.36a32.55,32.55,0,0,0-4.52.3,34.94,34.94,0,0,0-14.14,5.05c-.51.31-.51.32-.07.76L79.49,68.86c.48.47.49.48.83-.09A35.12,35.12,0,0,0,85,43.42,35.65,35.65,0,0,0,49.84,14.36ZM14.3,50A34.62,34.62,0,0,0,16,61,35.72,35.72,0,0,0,68.66,80.43c.64-.39.63-.39.1-.93L20.48,31.22c-.5-.5-.51-.5-.89.12A35.22,35.22,0,0,0,14.3,50Z" transform="translate(0)"/></svg>