<svg fill="#0ad7ff" id="Calque_1" data-name="Calque 1" xmlns="http://www.w3.org/2000/svg" viewBox="0 0 100 100"><path d="M50,11.74a37.91,37.91,0,1,1-37.9,37.9A37.95,37.95,0,0,1,50,11.74M50-.36a50,50,0,1,0,50,50,50,50,0,0,0-50-50Z" transform="translate(0 0.36)"/><rect x="40.51" y="30.32" width="30.43" height="6.76" rx="1.96"/><rect x="29.22" y="30.32" width="6.76" height="6.76" rx="1.96"/><rect x="40.51" y="46.62" width="30.43" height="6.76" rx="1.96"/><rect x="29.22" y="46.62" width="6.76" height="6.76" rx="1.96"/><rect x="40.6" y="62.91" width="30.43" height="6.76" rx="1.96"/><rect x="29.3" y="62.91" width="6.76" height="6.76" rx="1.96"/></svg>