<svg fill="white" id="Calque_1" data-name="Calque 1" xmlns="http://www.w3.org/2000/svg" viewBox="0 0 99.69 98.66"><path d="M.16,50.06C.09,23.11,22.49.72,49.57.67,77.34.62,99.8,22.56,99.84,49.75c0,27.89-22.58,48.79-48.37,49.56C25,100.09.52,79.49.16,50.06Zm6.47-.16c-.15,23.19,19.28,42.84,42.51,43,24.35.17,44.12-18.75,44.3-42.4S74.12,7.12,50.13,7A43.44,43.44,0,0,0,6.63,49.9Z" transform="translate(-0.16 -0.67)"/><path d="M39.45,41.18c.46-.48.87-1.31,1.39-1.39,5.92-.86,11.86-1.6,17.79-2.36a4.51,4.51,0,0,1,1,.13C58.29,41.77,57,45.89,55.71,50q-2.93,9.31-5.85,18.64a14.33,14.33,0,0,0-.76,3c-.06.68.14,1.74.59,2a2.22,2.22,0,0,0,2.07-.37c1.88-1.81,3.62-3.78,5.51-5.8l1.57.83c-3.44,5.13-6.9,10-13.25,11.52a12,12,0,0,1-4.3.18c-3.92-.55-6-3.71-4.92-7.67,1.81-6.39,3.92-12.69,5.88-19C43,50.9,43.84,48.47,44.41,46c.72-3.1-.25-4.17-3.54-4.26l-1-.05Z" transform="translate(-0.16 -0.67)"/><path d="M56.57,16.83c4.15,0,7.23,2.75,7.25,6.47s-3,6.61-7.32,6.6c-4,0-7-2.76-7-6.47S52.45,16.84,56.57,16.83Z" transform="translate(-0.16 -0.67)"/></svg>